<?xml version="1.0" standalone="no"?>
<!DOCTYPE svg PUBLIC "-//W3C//DTD SVG 20010904//EN"
 "http://www.w3.org/TR/2001/REC-SVG-20010904/DTD/svg10.dtd">
<svg version="1.0" xmlns="http://www.w3.org/2000/svg"
 width="210.000000pt" height="210.000000pt" viewBox="0 0 210.000000 210.000000"
 preserveAspectRatio="xMidYMid meet">

<g transform="translate(0.000000,210.000000) scale(0.100000,-0.100000)"
fill="#000000" stroke="none">
<path d="M1200 1180 c0 -5 5 -10 10 -10 6 0 10 -4 10 -10 0 -5 -7 -10 -15 -10
-18 0 -18 -1 -5 -34 21 -56 75 -16 63 47 -4 22 -11 27 -34 27 -16 0 -29 -4
-29 -10z m50 -20 c0 -5 -4 -10 -10 -10 -5 0 -10 5 -10 10 0 6 5 10 10 10 6 0
10 -4 10 -10z m-8 -52 c-9 -9 -15 -9 -24 0 -9 9 -7 12 12 12 19 0 21 -3 12
-12z"/>
<path d="M1300 1180 c0 -5 5 -10 10 -10 6 0 10 -4 10 -10 0 -5 -7 -10 -15 -10
-18 0 -18 -1 -5 -34 21 -56 75 -16 63 47 -4 22 -11 27 -34 27 -16 0 -29 -4
-29 -10z m50 -20 c0 -5 -4 -10 -10 -10 -5 0 -10 5 -10 10 0 6 5 10 10 10 6 0
10 -4 10 -10z m-8 -52 c-9 -9 -15 -9 -24 0 -9 9 -7 12 12 12 19 0 21 -3 12
-12z"/>
<path d="M1440 1175 c0 -8 -6 -15 -12 -15 -10 0 -10 -2 -1 -8 6 -4 13 -21 16
-37 2 -19 5 -11 6 23 0 28 -1 52 -4 52 -3 0 -5 -7 -5 -15z"/>
<path d="M1463 1140 c0 -30 2 -43 4 -27 2 15 2 39 0 55 -2 15 -4 2 -4 -28z"/>
<path d="M1553 1140 c0 -30 2 -43 4 -27 2 15 2 39 0 55 -2 15 -4 2 -4 -28z"/>
<path d="M1660 1170 c0 -11 -6 -20 -12 -20 -10 0 -10 -2 -2 -8 7 -4 14 -18 17
-32 2 -14 5 -1 6 28 0 28 -1 52 -4 52 -3 0 -5 -9 -5 -20z"/>
<path d="M220 1050 l0 -130 64 0 c36 0 76 4 90 10 61 23 86 132 46 197 -22 37
-67 53 -147 53 l-53 0 0 -130z m143 63 c23 -26 30 -65 17 -98 -14 -37 -26 -45
-72 -45 l-38 0 0 80 0 80 38 0 c24 0 45 -7 55 -17z"/>
<path d="M510 1063 c-24 -65 -46 -124 -48 -130 -3 -8 6 -13 22 -13 21 0 29 7
37 30 10 28 15 30 59 30 44 0 49 -2 59 -30 7 -23 16 -30 35 -30 32 0 32 2 0
86 -14 38 -35 93 -46 122 -17 45 -23 52 -46 52 -26 0 -30 -7 -72 -117z m99
-30 c1 -8 -11 -13 -30 -13 -33 0 -33 3 -7 70 l10 25 13 -35 c8 -19 14 -41 14
-47z"/>
<path d="M680 1155 c0 -22 4 -25 40 -25 l40 0 0 -105 0 -105 25 0 25 0 0 105
0 105 40 0 c36 0 40 3 40 25 l0 25 -105 0 -105 0 0 -25z"/>
<path d="M967 1173 c-3 -5 -23 -56 -45 -113 -22 -58 -43 -113 -47 -122 -6 -15
-2 -18 23 -18 26 0 31 5 37 30 6 28 9 30 56 30 47 0 51 -2 60 -30 9 -24 17
-30 40 -30 l28 0 -25 68 c-14 37 -36 94 -48 127 -19 50 -27 61 -48 63 -15 2
-28 -1 -31 -5z m46 -108 l16 -45 -36 0 c-29 0 -34 3 -28 18 4 9 12 29 17 45 5
15 11 27 13 27 2 0 10 -20 18 -45z"/>
<path d="M1390 1150 c0 -25 4 -30 23 -29 16 1 18 2 5 6 -10 2 -18 13 -18 23 0
10 8 21 18 23 13 4 11 5 -5 6 -19 1 -23 -4 -23 -29z"/>
<path d="M1494 1166 c-9 -23 0 -51 17 -54 19 -4 32 23 24 49 -7 22 -33 25 -41
5z m32 -32 c-5 -13 -10 -14 -18 -6 -6 6 -8 18 -4 28 5 13 10 14 18 6 6 -6 8
-18 4 -28z"/>
<path d="M1590 1150 c0 -26 3 -30 28 -29 23 2 24 2 5 6 -27 5 -31 23 -5 24 14
0 14 2 -3 8 -19 8 -18 9 5 13 25 5 25 5 -2 7 -25 1 -28 -3 -28 -29z"/>
<path d="M1704 1158 c1 -13 6 -26 11 -30 6 -4 2 -8 -7 -8 -10 0 -18 -4 -18
-10 0 -5 18 -10 40 -10 22 0 40 5 40 10 0 6 -8 10 -17 10 -10 0 -14 4 -8 8 6
4 10 17 11 30 0 17 -5 22 -26 22 -21 0 -26 -5 -26 -22z m36 -3 c0 -8 -4 -15
-10 -15 -5 0 -10 7 -10 15 0 8 5 15 10 15 6 0 10 -7 10 -15z"/>
<path d="M1790 1160 c0 -11 5 -20 11 -20 7 0 9 -10 5 -25 -6 -23 -4 -25 31
-24 38 1 38 1 8 9 l-30 8 28 1 c24 1 27 5 27 37 0 24 -4 34 -12 31 -7 -2 -12
-14 -11 -26 2 -11 -1 -21 -6 -21 -5 0 -8 11 -6 25 2 20 -2 25 -21 25 -17 0
-24 -6 -24 -20z"/>
<path d="M1312 1024 c-15 -10 -22 -25 -22 -49 0 -40 21 -56 69 -52 27 2 31 6
31 30 0 21 -5 27 -22 27 -18 0 -20 -2 -8 -10 11 -7 12 -12 3 -21 -18 -18 -48
-6 -51 22 -4 31 23 58 40 41 7 -7 19 -12 28 -12 11 1 9 6 -9 20 -28 24 -31 24
-59 4z"/>
<path d="M1432 1024 c-15 -10 -22 -25 -22 -48 0 -39 15 -56 52 -56 58 0 75 90
21 111 -30 11 -25 12 -51 -7z m46 -13 c8 -5 12 -21 10 -37 -2 -23 -8 -29 -28
-29 -18 0 -26 6 -28 23 -3 22 13 52 27 52 3 0 12 -4 19 -9z"/>
<path d="M1670 975 c0 -30 5 -55 10 -55 6 0 10 9 10 19 0 31 18 34 36 6 9 -14
23 -25 31 -25 11 0 10 6 -6 29 -25 35 -26 39 -4 63 24 27 -5 24 -34 -4 l-23
-21 0 21 c0 12 -4 22 -10 22 -5 0 -10 -25 -10 -55z"/>
<path d="M1790 975 c0 -30 5 -55 10 -55 6 0 10 12 10 26 0 32 30 30 45 -4 12
-27 35 -29 35 -2 0 11 -4 20 -10 20 -5 0 -10 7 -10 15 0 8 5 15 10 15 16 0 11
27 -6 34 -9 3 -31 6 -50 6 l-34 0 0 -55z m65 25 c0 -8 -10 -16 -22 -18 -18 -3
-23 2 -23 18 0 16 5 21 23 18 12 -2 22 -10 22 -18z"/>
<path d="M1200 930 c0 -5 5 -10 10 -10 6 0 10 5 10 10 0 6 -4 10 -10 10 -5 0
-10 -4 -10 -10z"/>
<path d="M1580 930 c0 -5 5 -10 10 -10 6 0 10 5 10 10 0 6 -4 10 -10 10 -5 0
-10 -4 -10 -10z"/>
</g>
</svg>
