<?xml version="1.0" standalone="no"?>
<!DOCTYPE svg PUBLIC "-//W3C//DTD SVG 20010904//EN"
 "http://www.w3.org/TR/2001/REC-SVG-20010904/DTD/svg10.dtd">
<svg version="1.0" xmlns="http://www.w3.org/2000/svg"
 width="210.000000pt" height="210.000000pt" viewBox="0 0 210.000000 210.000000"
 preserveAspectRatio="xMidYMid meet">

<g transform="translate(0.000000,210.000000) scale(0.100000,-0.100000)"
fill="#000000" stroke="none">
<path d="M235 1091 c-19 -8 -19 -8 3 -20 21 -11 22 -17 22 -148 0 -99 3 -134
11 -126 7 7 33 9 69 6 55 -5 61 -4 89 25 42 41 44 110 5 149 -23 22 -32 25
-80 21 l-54 -5 0 54 c0 49 -2 53 -22 52 -13 0 -32 -4 -43 -8z m151 -120 c37
-23 49 -60 34 -106 -16 -49 -87 -68 -112 -31 -4 6 -8 39 -8 74 0 56 2 64 23
72 30 12 28 12 63 -9z"/>
<path d="M741 1089 c-22 -9 -23 -11 -7 -27 13 -15 16 -40 16 -124 0 -98 -2
-107 -22 -121 -22 -15 -20 -16 37 -16 56 0 59 1 40 15 -18 14 -20 27 -20 149
0 84 -4 135 -10 134 -5 0 -21 -5 -34 -10z"/>
<path d="M1094 1090 c-30 -12 -64 -58 -64 -86 0 -13 -9 -29 -20 -36 -24 -15
-26 -28 -5 -28 23 0 21 -108 -2 -126 -16 -12 -8 -13 52 -13 69 0 70 0 38 14
-32 13 -33 16 -33 70 0 48 3 55 19 55 28 0 52 11 45 21 -3 5 -18 9 -35 9 -27
0 -29 3 -29 39 0 50 17 63 70 55 38 -6 42 -5 38 12 -4 21 -40 28 -74 14z"/>
<path d="M882 1073 c4 -22 43 -25 43 -3 0 8 -11 16 -23 18 -19 3 -23 0 -20
-15z"/>
<path d="M885 995 c-25 -21 -27 -25 -12 -31 14 -5 17 -19 17 -71 0 -56 -3 -66
-20 -70 -40 -10 -19 -23 38 -23 l57 0 -24 19 c-22 17 -23 21 -16 103 4 47 3
88 -1 91 -5 3 -22 -6 -39 -18z"/>
<path d="M547 999 c-40 -24 -60 -106 -35 -152 27 -51 88 -62 147 -26 35 21 37
38 3 20 -56 -30 -122 6 -122 65 0 30 0 30 53 28 90 -4 109 12 64 54 -25 24
-79 29 -110 11z m86 -17 c22 -24 13 -32 -40 -32 -46 0 -55 13 -25 36 24 19 46
17 65 -4z"/>
<path d="M1863 835 c0 -22 2 -30 4 -17 2 12 2 30 0 40 -3 9 -5 -1 -4 -23z"/>
<path d="M1221 834 c0 -11 3 -14 6 -6 3 7 2 16 -1 19 -3 4 -6 -2 -5 -13z"/>
<path d="M1792 825 c0 -16 2 -22 5 -12 2 9 2 23 0 30 -3 6 -5 -1 -5 -18z"/>
<path d="M1240 826 c0 -8 4 -17 9 -20 5 -4 7 3 4 14 -6 23 -13 26 -13 6z"/>
</g>
</svg>
