<?xml version="1.0" standalone="no"?>
<!DOCTYPE svg PUBLIC "-//W3C//DTD SVG 20010904//EN"
 "http://www.w3.org/TR/2001/REC-SVG-20010904/DTD/svg10.dtd">
<svg version="1.0" xmlns="http://www.w3.org/2000/svg"
 width="600.000000pt" height="310.000000pt" viewBox="0 0 600.000000 310.000000"
 preserveAspectRatio="xMidYMid meet">

<g transform="translate(0.000000,310.000000) scale(0.100000,-0.100000)"
fill="#000000" stroke="none">
<path d="M2740 2440 c-19 -19 -20 -33 -20 -220 0 -192 1 -200 22 -220 17 -16
35 -20 90 -20 l68 0 0 -50 c0 -34 5 -52 14 -56 8 -3 46 20 86 50 l72 56 93 0
c144 0 139 -7 143 232 3 185 2 195 -18 221 l-21 27 -255 0 c-241 0 -255 -1
-274 -20z m514 -46 c12 -31 7 -339 -6 -352 -8 -8 -46 -12 -104 -12 -89 0 -92
-1 -137 -35 -25 -19 -48 -35 -51 -35 -3 0 -6 11 -6 24 0 36 -19 45 -100 48
l-75 3 -3 175 c-1 96 0 180 2 187 4 10 58 13 240 13 204 0 235 -2 240 -16z"/>
<path d="M2284 1731 c-51 -31 -74 -68 -74 -119 0 -65 42 -102 157 -137 126
-39 158 -77 117 -140 -42 -65 -203 -58 -220 10 -5 19 -13 25 -35 25 -33 0 -37
-16 -14 -60 49 -95 272 -94 321 2 8 15 14 47 14 72 0 77 -34 104 -193 152 -93
28 -120 84 -66 139 16 16 33 20 85 20 64 0 67 -1 99 -38 32 -37 64 -46 72 -22
5 18 -36 75 -69 95 -45 27 -150 28 -194 1z"/>
<path d="M2761 1620 c-80 -19 -126 -88 -126 -190 1 -119 64 -190 169 -190 65
0 110 27 143 85 30 53 31 149 3 204 -24 48 -74 91 -105 91 -13 0 -29 2 -37 4
-7 2 -28 0 -47 -4z m90 -56 c75 -38 91 -177 29 -244 -39 -42 -106 -43 -152 -1
-28 25 -32 35 -36 93 -5 76 13 124 56 150 34 22 65 22 103 2z"/>
<path d="M3177 1620 c-106 -20 -163 -175 -104 -290 30 -62 76 -90 143 -90 105
0 168 71 169 190 0 134 -85 212 -208 190z m88 -56 c48 -23 68 -71 63 -152 -4
-58 -8 -68 -36 -93 -26 -23 -42 -29 -78 -29 -38 0 -51 5 -74 30 -62 67 -46
204 29 245 34 19 56 18 96 -1z"/>
<path d="M3591 1619 c-44 -9 -81 -38 -106 -80 -30 -50 -28 -171 3 -221 33 -54
78 -78 144 -78 101 0 168 76 168 190 -1 131 -93 215 -209 189z m90 -55 c33
-16 68 -81 69 -124 0 -43 -21 -102 -45 -126 -36 -36 -104 -34 -147 5 -28 25
-32 35 -36 93 -8 129 66 200 159 152z"/>
</g>
</svg>
