<?xml version="1.0" standalone="no"?>
<!DOCTYPE svg PUBLIC "-//W3C//DTD SVG 20010904//EN"
 "http://www.w3.org/TR/2001/REC-SVG-20010904/DTD/svg10.dtd">
<svg version="1.0" xmlns="http://www.w3.org/2000/svg"
 width="210.000000pt" height="210.000000pt" viewBox="0 0 210.000000 210.000000"
 preserveAspectRatio="xMidYMid meet">

<g transform="translate(0.000000,210.000000) scale(0.100000,-0.100000)"
fill="#000000" stroke="none">
<path d="M1257 1824 c-4 -4 -4 -17 -1 -30 4 -17 -3 -35 -25 -63 -39 -50 -40
-68 -1 -21 l29 35 1 -99 c0 -55 3 -96 6 -93 4 3 6 49 5 102 -1 52 2 95 7 95 4
0 18 -13 30 -30 13 -16 28 -30 34 -30 7 0 -7 19 -30 43 -38 39 -53 67 -35 67
4 0 22 -14 40 -32 18 -18 33 -30 33 -27 0 11 -87 89 -93 83z"/>
<path d="M836 1768 c-19 -24 -33 -45 -30 -47 2 -3 18 11 34 30 40 47 39 15 -1
-34 -17 -21 -29 -40 -26 -43 3 -3 16 9 29 26 l23 32 6 -99 5 -98 2 98 c1 53 5
97 9 97 4 0 22 -14 40 -32 18 -18 33 -27 33 -22 0 5 -18 28 -40 49 -22 21 -40
46 -40 54 0 10 11 4 33 -17 48 -46 58 -39 12 8 -21 22 -42 40 -46 40 -4 0 -23
-19 -43 -42z"/>
<path d="M1228 1783 c-29 -34 -30 -48 -2 -21 15 15 26 30 23 33 -3 3 -13 -3
-21 -12z"/>
<path d="M1038 1633 c-8 -10 -73 -101 -143 -203 -70 -102 -137 -197 -147 -212
-11 -16 -17 -28 -14 -28 2 0 60 80 127 178 68 97 140 201 161 230 38 51 46 69
16 35z"/>
<path d="M1104 1617 c16 -20 30 -37 33 -37 7 0 -36 58 -49 66 -7 4 1 -9 16
-29z"/>
<path d="M1461 1541 c-39 -49 -40 -68 -1 -21 18 21 30 29 30 20 0 -9 -14 -32
-31 -53 -17 -21 -29 -40 -26 -43 3 -3 15 10 28 28 l24 33 6 -90 5 -90 2 94 2
95 35 -34 c19 -19 35 -29 35 -24 0 6 -16 25 -35 44 -48 47 -46 75 2 29 31 -28
29 -15 -2 16 -37 37 -42 37 -74 -4z"/>
<path d="M1148 1498 c4 -101 9 -116 11 -33 l1 70 26 -30 c17 -20 15 -15 -7 18
-18 26 -33 47 -34 47 0 0 1 -33 3 -72z"/>
<path d="M600 1520 c-17 -22 -28 -40 -24 -40 5 0 18 12 30 28 12 15 25 24 29
20 4 -4 -10 -27 -30 -52 -21 -26 -33 -46 -27 -46 5 0 17 11 26 25 9 14 21 25
26 25 5 0 11 -39 13 -87 l3 -88 2 94 2 95 30 -29 c16 -16 32 -26 35 -24 2 3
-11 21 -30 39 -19 19 -35 41 -35 49 0 10 9 7 28 -12 41 -40 52 -33 12 8 -19
19 -39 35 -46 35 -7 0 -27 -18 -44 -40z"/>
<path d="M1285 1360 c43 -63 84 -122 93 -130 8 -8 -20 37 -63 100 -43 63 -85
122 -93 130 -8 8 20 -37 63 -100z"/>
<path d="M1147 1363 c-3 -16 -1 -32 4 -37 5 -6 9 4 9 27 0 44 -6 48 -13 10z"/>
<path d="M1430 1150 c22 -33 43 -60 46 -60 2 0 -14 27 -36 60 -22 33 -43 60
-46 60 -2 0 14 -27 36 -60z"/>
<path d="M680 1120 c-22 -33 -38 -60 -36 -60 3 0 24 27 46 60 22 33 38 60 36
60 -3 0 -24 -27 -46 -60z"/>
<path d="M1545 985 c37 -55 75 -107 83 -115 8 -8 -15 30 -53 85 -37 55 -75
107 -83 115 -8 8 15 -30 53 -85z"/>
<path d="M564 953 c-94 -137 -109 -160 -92 -143 20 20 171 240 164 240 -2 0
-35 -44 -72 -97z"/>
<path d="M894 948 l-19 -23 23 19 c21 18 27 26 19 26 -2 0 -12 -10 -23 -22z"/>
<path d="M1700 761 c43 -64 47 -77 28 -84 -10 -4 -10 -6 0 -6 28 -2 22 31 -18
88 -22 34 -43 61 -46 61 -2 0 13 -27 36 -59z"/>
<path d="M420 746 c-32 -47 -36 -61 -20 -71 5 -3 7 0 4 9 -3 8 8 35 26 60 17
26 29 46 26 46 -3 0 -19 -20 -36 -44z"/>
<path d="M838 673 c6 -2 18 -2 25 0 6 3 1 5 -13 5 -14 0 -19 -2 -12 -5z"/>
</g>
</svg>
