<?xml version="1.0" standalone="no"?>
<!DOCTYPE svg PUBLIC "-//W3C//DTD SVG 20010904//EN"
 "http://www.w3.org/TR/2001/REC-SVG-20010904/DTD/svg10.dtd">
<svg version="1.0" xmlns="http://www.w3.org/2000/svg"
 width="210.000000pt" height="210.000000pt" viewBox="0 0 210.000000 210.000000"
 preserveAspectRatio="xMidYMid meet">

<g transform="translate(0.000000,210.000000) scale(0.100000,-0.100000)"
fill="#000000" stroke="none">
<path d="M1176 1344 c-9 -8 -16 -19 -16 -24 0 -13 30 -40 45 -40 15 0 45 27
45 40 0 13 -30 40 -45 40 -7 0 -21 -7 -29 -16z"/>
<path d="M510 1178 c-104 -53 -132 -188 -56 -264 41 -41 93 -52 147 -31 l40
16 -3 -67 c-3 -61 -5 -67 -25 -70 -13 -2 -23 -10 -23 -18 0 -11 17 -14 75 -14
67 0 75 2 75 19 0 10 -9 21 -20 24 -19 5 -20 14 -20 216 0 201 -1 211 -19 211
-11 0 -21 -5 -23 -11 -2 -7 -12 -7 -31 0 -42 16 -68 13 -117 -11z m107 -40
c21 -19 23 -30 23 -114 0 -82 -2 -95 -19 -104 -57 -30 -126 6 -141 75 -26 113
66 210 137 143z"/>
<path d="M793 1183 c-28 -5 -30 -23 -3 -23 19 0 20 -7 20 -105 0 -135 13 -171
67 -181 25 -5 52 -2 80 8 36 13 43 13 43 2 0 -15 63 -20 94 -8 23 9 20 34 -4
34 -19 0 -20 7 -20 140 l0 140 -32 0 c-65 0 -102 -21 -58 -33 18 -5 20 -14 20
-111 l0 -105 -31 -16 c-17 -9 -42 -15 -57 -13 l-27 3 -3 138 -3 137 -32 -1
c-18 -1 -42 -4 -54 -6z"/>
<path d="M1173 1177 c-33 -11 -46 -37 -18 -37 21 0 26 -32 23 -130 -3 -79 -4
-85 -25 -88 -15 -2 -23 -10 -23 -23 0 -17 8 -19 75 -19 68 0 75 2 75 20 0 13
-7 20 -20 20 -19 0 -20 7 -20 135 0 150 3 145 -67 122z"/>
<path d="M1330 1176 c0 -7 -3 -28 -6 -45 -8 -39 12 -42 41 -5 17 22 27 25 68
22 l47 -3 -83 -121 c-46 -66 -87 -126 -91 -132 -5 -9 25 -12 122 -12 l130 0 6
36 c4 19 10 42 13 50 3 9 -2 14 -16 14 -12 0 -21 -6 -21 -13 0 -31 -36 -48
-94 -45 l-56 3 83 121 c46 66 87 126 91 132 5 9 -23 12 -113 12 -96 0 -121 -3
-121 -14z"/>
<path d="M1640 920 c-22 -22 -18 -45 12 -61 45 -24 93 38 53 68 -26 18 -42 16
-65 -7z"/>
</g>
</svg>
