<?xml version="1.0" standalone="no"?>
<!DOCTYPE svg PUBLIC "-//W3C//DTD SVG 20010904//EN"
 "http://www.w3.org/TR/2001/REC-SVG-20010904/DTD/svg10.dtd">
<svg version="1.0" xmlns="http://www.w3.org/2000/svg"
 width="210.000000pt" height="210.000000pt" viewBox="0 0 210.000000 210.000000"
 preserveAspectRatio="xMidYMid meet">

<g transform="translate(0.000000,210.000000) scale(0.100000,-0.100000)"
fill="#000000" stroke="none">
<path d="M1970 1227 c0 -10 -16 -16 -56 -20 -72 -7 -84 -18 -84 -78 0 -69 -37
-100 -75 -62 -13 12 -16 30 -13 75 l3 58 -42 0 -43 0 0 -78 c0 -83 14 -112 60
-127 16 -5 20 -15 20 -56 l0 -49 45 0 45 0 0 49 c0 44 3 50 29 61 32 13 49 45
53 100 2 28 8 36 26 38 17 3 25 -2 29 -17 5 -20 7 -20 42 11 20 17 36 35 36
38 0 3 -17 21 -37 39 -25 22 -38 28 -38 18z"/>
<path d="M1428 1194 c-15 -8 -32 -23 -38 -34 -5 -10 -10 -75 -10 -144 l0 -126
39 0 40 0 3 48 c3 46 3 47 40 50 l37 3 3 -48 3 -48 43 -2 42 -2 0 119 c0 136
-7 163 -49 185 -38 19 -117 19 -153 -1z m110 -101 l3 -43 -40 0 c-40 0 -41 1
-41 33 0 40 17 59 50 55 22 -3 25 -9 28 -45z"/>
<path d="M960 1090 c0 -71 5 -122 14 -144 18 -42 61 -61 119 -51 23 4 53 6 67
5 120 -7 131 -6 156 23 23 26 24 35 24 153 l0 124 -40 0 -40 0 0 -114 c0 -109
-1 -115 -22 -122 -39 -12 -49 19 -46 134 l3 102 -42 0 -42 0 -3 -117 -3 -118
-25 0 -25 0 -3 118 -3 117 -44 0 -45 0 0 -110z"/>
</g>
</svg>
