<?xml version="1.0" standalone="no"?>
<!DOCTYPE svg PUBLIC "-//W3C//DTD SVG 20010904//EN"
 "http://www.w3.org/TR/2001/REC-SVG-20010904/DTD/svg10.dtd">
<svg version="1.0" xmlns="http://www.w3.org/2000/svg"
 width="210.000000pt" height="210.000000pt" viewBox="0 0 210.000000 210.000000"
 preserveAspectRatio="xMidYMid meet">

<g transform="translate(0.000000,210.000000) scale(0.100000,-0.100000)"
fill="#000000" stroke="none">
<path d="M805 1301 c-85 -39 -139 -133 -140 -241 0 -47 6 -76 21 -105 42 -81
144 -122 239 -95 74 21 56 36 -44 35 -89 0 -90 0 -125 34 -84 82 -65 248 39
327 53 40 136 45 185 12 19 -13 43 -39 52 -58 34 -68 14 -190 -34 -206 -37
-11 -42 9 -29 101 7 47 10 89 6 93 -4 4 -31 7 -60 7 -65 0 -100 -22 -133 -86
-55 -104 12 -195 100 -135 34 23 36 23 41 6 7 -28 53 -36 94 -16 60 29 93 151
62 233 -14 38 -57 83 -96 99 -45 20 -130 17 -178 -5z m112 -183 c-8 -62 -35
-103 -68 -103 -49 0 -33 111 20 140 48 26 54 21 48 -37z"/>
<path d="M1130 1306 c0 -2 29 -84 65 -182 36 -98 65 -186 65 -195 0 -21 -52
-75 -80 -84 -11 -4 -20 -12 -20 -19 0 -24 22 -76 31 -76 20 0 65 29 95 62 45
47 67 95 139 308 l64 190 -53 0 -53 0 -32 -136 c-18 -74 -34 -134 -36 -132 -1
2 -20 63 -40 136 l-38 132 -53 0 c-30 0 -54 -2 -54 -4z"/>
</g>
</svg>
